<svg width="141" height="141" viewBox="0 0 141 141" fill="none" xmlns="http://www.w3.org/2000/svg">
<path d="M70.5 11.75C38.1287 11.75 11.75 38.1287 11.75 70.5C11.75 102.871 38.1287 129.25 70.5 129.25C102.871 129.25 129.25 102.871 129.25 70.5C129.25 38.1287 102.871 11.75 70.5 11.75ZM94 74.9062H74.9062V94C74.9062 96.4087 72.9087 98.4062 70.5 98.4062C68.0913 98.4062 66.0938 96.4087 66.0938 94V74.9062H47C44.5913 74.9062 42.5938 72.9087 42.5938 70.5C42.5938 68.0913 44.5913 66.0938 47 66.0938H66.0938V47C66.0938 44.5913 68.0913 42.5938 70.5 42.5938C72.9087 42.5938 74.9062 44.5913 74.9062 47V66.0938H94C96.4087 66.0938 98.4062 68.0913 98.4062 70.5C98.4062 72.9087 96.4087 74.9062 94 74.9062Z" fill="#DD6031"/>
</svg>
